<svg xmlns="http://www.w3.org/2000/svg" viewBox="-4 -2 55 55"><defs><style>.cls-1{fill:#374f68}.cls-2{fill:#425b72}</style></defs><g id="magnify"><path class="cls-1" d="M47 16c0 3.87-1.71 7.82-3.46 9.57C34.63 36.37 17 30 17 16a14.93 14.93 0 0 1 5.43-11.54C32.11-3.55 47 3.24 47 16z"/><path class="cls-2" d="M47 16c0 3.87-1.71 7.82-3.46 9.57C33.88 33.55 19 26.75 19 14c0-5.2 3-9.36 3.46-9.57C32.11-3.55 47 3.24 47 16z"/><path d="M43 16a11 11 0 0 1-11 11c-10.49 0-15-13.33-6.71-19.71A11 11 0 0 1 43 16z" style="fill:#dad7e5"/><path d="M43 16a10.9 10.9 0 0 1-2.29 6.71A11 11 0 0 1 25.29 7.29 11 11 0 0 1 43 16z" style="fill:#edebf2"/><path class="cls-1" d="m22.84 27.87-4.46 4.46-2.84-2.83L20 25c2.22 2.23 1.59 1.6 2.84 2.87z"/><path class="cls-2" d="m21.85 26.86-1.63 1.63a2.6 2.6 0 0 1-3.68 0L20 25z"/><path class="cls-1" d="m18.44 35.22-2.61 2.61-5.66-5.66 2.61-2.61a2 2 0 0 1 2.83 0l2.83 2.83a2 2 0 0 1 0 2.83z"/><path class="cls-2" d="M18.36 32.31a3.58 3.58 0 0 1-5 0l-1.64-1.64 1.11-1.11a2 2 0 0 1 2.83 0z"/><path class="cls-1" d="m15.83 37.83-8 8a4 4 0 0 1-6.54-4.33c.42-1 0-.45 8.88-9.33z"/><path class="cls-2" d="M14.33 36.33C7.71 43 7.22 44 5 44a4 4 0 0 1-3.71-2.5c.42-1 0-.45 8.88-9.33z"/></g></svg>