<svg xmlns="http://www.w3.org/2000/svg" xml:space="preserve" width="2048" height="2048" style="shape-rendering:geometricPrecision;text-rendering:geometricPrecision;image-rendering:optimizeQuality;fill-rule:evenodd;clip-rule:evenodd"><defs><style>.fil2{fill:none}</style></defs><g id="Layer_x0020_1"><g id="_342374768"><path id="_342374960" d="M1274.91 351.759h361.758c85.912 0 155.33 69.418 155.33 155v1034.154c0 85.91-69.418 155.329-155.33 155.329H1274.91V351.762z" style="fill:#e0e0e0"/><path id="_342374816" d="M912.829 351.759H1274.91v1344.48H912.829c-85.581 0-155.008-69.418-155.008-155.329V506.76c0-85.582 69.427-155 155.008-155z" style="fill:#bdbdbd"/></g><path class="fil2" d="M0 0h2048v2048H0z"/><path class="fil2" d="M255.999 255.999h1536v1536h-1536z"/><path class="fil2" d="M256.003 256.001h1536v1536h-1536z"/><path class="fil2" d="M256.003 256.001h1536v1536h-1536z"/><path d="M1274.91 868.521c55.832 0 101.092 45.26 101.092 101.092 0 38.915-21.991 72.689-54.222 89.585v137.411c0 25.78-21.091 46.87-46.87 46.87-25.779 0-46.87-21.09-46.87-46.87V1059.2c-32.23-16.897-54.222-50.671-54.222-89.586 0-55.832 45.26-101.092 101.092-101.092z" style="fill:#616161"/><path d="M255.999 1041.05c.007-159.075 104.269-288.03 232.879-288.03 97.434 0 180.882 74.014 215.627 179.065h472.616a44.813 44.813 0 0 1 33.072 14.584l64.723 64.708a44.79 44.79 0 0 1 11.7 30.179 44.703 44.703 0 0 1-11.7 30.17l-64.723 63.712a44.796 44.796 0 0 1-33.072 14.607l-48.145-.009a44.853 44.853 0 0 1-31.66-13.117l-32.557-32.557-32.557 32.557a44.842 44.842 0 0 1-31.66 13.117h-56.446a44.78 44.78 0 0 1-31.644-13.117l-32.557-32.557-32.558 32.557a44.745 44.745 0 0 1-31.651 13.11l-111.181.007c-34.752 105.045-118.193 179.058-215.635 179.066-128.602-.008-232.871-128.963-232.871-288.052zm170.358 94.434c34.528 0 62.522-42.285 62.522-94.427 0-52.157-27.985-94.427-62.522-94.419-34.528-.008-62.529 42.269-62.529 94.412.007 52.15 27.992 94.434 62.529 94.434z" style="fill:#d84315"/></g></svg>